<svg width="432" height="432" viewBox="0 0 432 432" fill="none" xmlns="http://www.w3.org/2000/svg">
<g filter="url(#filter0_d_6_49)">
<circle cx="226" cy="203" r="111" fill="url(#paint0_linear_6_49)" shape-rendering="crispEdges"/>
</g>
<g opacity="0.7">
<path d="M163.797 229.138C159.82 220.408 152.96 213.167 144.267 208.524C135.574 203.881 125.529 202.093 115.671 203.434C105.814 204.774 96.6879 209.17 89.6932 215.946C82.6985 222.723 78.221 231.506 76.9471 240.95C70.7492 242.369 65.3122 245.916 61.6687 250.916C58.0251 255.917 56.4287 262.023 57.1827 268.075C57.9366 274.127 60.9884 279.703 65.7585 283.745C70.5285 287.787 76.6846 290.013 83.0578 290H154.566C162.363 289.979 169.892 287.279 175.78 282.392C181.669 277.505 185.524 270.757 186.643 263.378C187.762 255.999 186.071 248.481 181.877 242.196C177.683 235.91 171.266 231.276 163.797 229.138ZM157.881 273.925V229.138C154.433 229.138 71.3301 270.934 73.8643 273.925C71.4261 271.593 165.071 277.206 71.3301 264.772C67.0298 263.378 136.038 281.591 138.476 279.259C140.914 276.927 80.6827 253.934 83.6827 254.934C113.56 273.169 106.867 263.577 87.6545 250.879C109.061 272.584 125.043 256.941 93.866 246.662C99.0666 248.598 117.49 271.329 122.469 265.727C127.449 260.125 149.554 234.006 157.14 232.806C164.725 231.605 132.126 216.093 138.727 219.863C145.328 223.632 150.318 229.518 152.811 236.474C153.192 237.53 153.864 238.469 154.757 239.191C155.649 239.913 153.413 240.91 154.566 241.095C159.331 241.936 117.798 253.077 120.736 256.762C123.674 260.446 155.17 239.794 154.757 244.41C154.343 249.027 138.155 230.399 134.604 233.552C131.053 236.705 157.881 273.434 157.881 273.925Z" fill="url(#paint1_linear_6_49)"/>
</g>
<g opacity="0.7">
<path d="M361.797 134.138C357.82 125.408 350.96 118.167 342.267 113.524C333.574 108.881 323.529 107.093 313.671 108.434C303.814 109.774 294.688 114.17 287.693 120.946C280.699 127.723 276.221 136.506 274.947 145.95C268.749 147.369 263.312 150.916 259.669 155.916C256.025 160.917 254.429 167.023 255.183 173.075C255.937 179.127 258.988 184.703 263.758 188.745C268.529 192.787 274.685 195.013 281.058 195H352.566C360.363 194.979 367.892 192.279 373.78 187.392C379.669 182.505 383.524 175.757 384.643 168.378C385.762 160.999 384.071 153.481 379.877 147.196C375.683 140.91 369.266 136.276 361.797 134.138ZM355.881 178.925V134.138C352.433 134.138 269.33 175.934 271.864 178.925C269.426 176.593 363.071 182.206 269.33 169.772C265.03 168.378 334.038 186.591 336.476 184.259C338.914 181.927 278.683 158.934 281.683 159.934C311.56 178.169 304.867 168.577 285.654 155.879C307.061 177.584 323.043 161.941 291.866 151.662C297.067 153.598 315.49 176.329 320.469 170.727C325.449 165.125 347.554 139.006 355.14 137.806C362.725 136.605 330.126 121.093 336.727 124.863C343.328 128.632 348.318 134.518 350.811 141.474C351.192 142.53 351.864 143.469 352.757 144.191C353.649 144.913 351.413 145.91 352.566 146.095C357.331 146.936 315.798 158.077 318.736 161.762C321.674 165.446 353.17 144.794 352.757 149.41C352.343 154.027 336.155 135.399 332.604 138.552C329.053 141.705 355.881 178.434 355.881 178.925Z" fill="url(#paint2_linear_6_49)"/>
</g>
<defs>
<filter id="filter0_d_6_49" x="0" y="0" width="432" height="432" filterUnits="userSpaceOnUse" color-interpolation-filters="sRGB">
<feFlood flood-opacity="0" result="BackgroundImageFix"/>
<feColorMatrix in="SourceAlpha" type="matrix" values="0 0 0 0 0 0 0 0 0 0 0 0 0 0 0 0 0 0 127 0" result="hardAlpha"/>
<feOffset dx="-10" dy="13"/>
<feGaussianBlur stdDeviation="52.5"/>
<feComposite in2="hardAlpha" operator="out"/>
<feColorMatrix type="matrix" values="0 0 0 0 0.430878 0 0 0 0 0.420426 0 0 0 0 0.943012 0 0 0 0.64 0"/>
<feBlend mode="normal" in2="BackgroundImageFix" result="effect1_dropShadow_6_49"/>
<feBlend mode="normal" in="SourceGraphic" in2="effect1_dropShadow_6_49" result="shape"/>
</filter>
<linearGradient id="paint0_linear_6_49" x1="127" y1="131" x2="395" y2="504" gradientUnits="userSpaceOnUse">
<stop stop-color="#2560FA"/>
<stop offset="0.353799" stop-color="#752182" stop-opacity="0.27"/>
<stop offset="0.687509" stop-color="#37043F" stop-opacity="0.13"/>
</linearGradient>
<linearGradient id="paint1_linear_6_49" x1="121.133" y1="210.934" x2="30.1617" y2="342.874" gradientUnits="userSpaceOnUse">
<stop stop-color="#713FFF"/>
<stop offset="1" stop-color="#DD9D9D" stop-opacity="0"/>
</linearGradient>
<linearGradient id="paint2_linear_6_49" x1="319.133" y1="115.934" x2="228.162" y2="247.874" gradientUnits="userSpaceOnUse">
<stop stop-color="#713FFF"/>
<stop offset="1" stop-color="#DD9D9D" stop-opacity="0"/>
</linearGradient>
</defs>
</svg>
